Coordinates
version=1
nRows=13
nColumns=40
inDegrees=yes

Units are S.I. units (second, meters, Newtons, ...)
If the header above contains a line with 'inDegrees', this indicates whether rotational values are in degrees (yes) or radians (no).

endheader
time	pelvis_tilt	pelvis_list	pelvis_rotation	pelvis_tx	pelvis_ty	pelvis_tz	hip_flexion_r	hip_adduction_r	hip_rotation_r	knee_angle_r	knee_angle_r_beta	ankle_angle_r	subtalar_angle_r	mtp_angle_r	hip_flexion_l	hip_adduction_l	hip_rotation_l	knee_angle_l	knee_angle_l_beta	ankle_angle_l	subtalar_angle_l	mtp_angle_l	lumbar_extension	lumbar_bending	lumbar_rotation	arm_flex_r	arm_add_r	arm_rot_r	elbow_flex_r	pro_sup_r	wrist_flex_r	wrist_dev_r	arm_flex_l	arm_add_l	arm_rot_l	elbow_flex_l	pro_sup_l	wrist_flex_l	wrist_dev_l
      4.82500000	    -15.56898754	      0.66349809	     -1.66381409	     -0.30311379	      0.87440317	     -0.90179695	     41.00474747	    -10.74361900	    -15.13960938	     46.88371252	      0.81827515	     15.35431552	      0.00000000	      0.00000000	     39.98452239	    -15.08582825	    -15.35841227	     46.09898949	      0.80457915	     10.49143552	      0.00000000	      0.00000000	    -25.59611205	    -16.90862074	    -46.91374141	     35.15290083	    -20.65234962	     89.55827960	     71.61619867	     88.55436013	      0.00000000	      0.00000000	    -68.47818361	     -4.73544377	    -25.83286227	    112.26041785	     88.08334506	      0.00000000	      0.00000000
      4.83000000	    -15.07607366	      0.57776600	     -1.48044457	     -0.29901691	      0.88620783	     -0.90154064	     38.72217137	    -10.46811014	    -15.93489979	     43.82094252	      0.76481973	     12.94706438	      0.00000000	      0.00000000	     37.94276468	    -14.75103552	    -15.85229588	     43.27489673	      0.75528943	      7.71526790	      0.00000000	      0.00000000	    -24.95409469	    -16.88304628	    -46.89875271	     34.93301523	    -20.98742692	     89.55385521	     71.68169605	     88.55211723	      0.00000000	      0.00000000	    -68.89046662	     -4.41989851	    -26.00259769	    112.56699432	     88.08332870	      0.00000000	      0.00000000
      4.83500000	    -14.42298770	      0.65680332	     -1.66077709	     -0.29447678	      0.89854798	     -0.90073826	     36.31743986	    -10.08262993	    -16.36764210	     40.64883414	      0.70945599	     10.05649313	      0.00000000	      0.00000000	     35.48447450	    -14.51072329	    -16.87126051	     40.30290569	      0.70341840	      4.63222624	      0.00000000	      0.00000000	    -24.40307758	    -17.20038283	    -46.65852939	     34.60757036	    -21.22481771	     89.55935336	     71.66642151	     88.55105657	      0.00000000	      0.00000000	    -69.34467256	     -4.09867663	    -26.07281826	    112.72216712	     88.08635009	      0.00000000	      0.00000000
      4.84000000	    -13.99855599	      0.70418469	     -1.63351164	     -0.29020634	      0.91082158	     -0.90025723	     34.07278950	     -9.73525020	    -16.86516455	     37.29850575	      0.65098173	      6.95957457	      0.00000000	      0.00000000	     33.35877273	    -14.08583817	    -17.51450120	     37.23428794	      0.64986092	      1.33612379	      0.00000000	      0.00000000	    -23.69521793	    -17.38499178	    -46.56971155	     34.39394065	    -21.48717274	     89.54762293	     71.67730751	     88.54278559	      0.00000000	      0.00000000	    -69.77238735	     -3.79334616	    -26.25399524	    113.10341987	     88.09571007	      0.00000000	      0.00000000
      4.84500000	    -13.46541257	      0.70698361	     -1.54041993	     -0.28576498	      0.92336412	     -0.89990860	     31.65829064	     -9.37171889	    -17.45729976	     33.87078536	      0.59115672	      3.47657505	      0.00000000	      0.00000000	     31.11211323	    -13.62677368	    -18.10534999	     34.05867869	      0.59443608	     -2.25380881	      0.00000000	      0.00000000	    -23.14401951	    -17.49627293	    -46.55382906	     34.18633891	    -21.77939445	     89.54110857	     71.68339847	     88.53784114	      0.00000000	      0.00000000	    -70.27539033	     -3.43859989	    -26.38211896	    113.39251758	     88.09373996	      0.00000000	      0.00000000
      4.85000000	    -13.01408916	      0.73295763	     -1.50723479	     -0.28149886	      0.93610796	     -0.89944906	     29.35117436	     -8.95105999	    -17.89384584	     30.32624408	      0.52929281	     -0.34836740	      0.00000000	      0.00000000	     28.92122329	    -13.12448403	    -18.60445289	     30.74269782	      0.53656130	     -6.14733479	      0.00000000	      0.00000000	    -22.56493994	    -17.65898051	    -46.54803886	     33.99404862	    -21.95782796	     89.54347642	     71.64787044	     88.54207586	      0.00000000	      0.00000000	    -70.71673624	     -3.09770756	    -26.56581382	    113.81072578	     88.10757114	      0.00000000	      0.00000000
      4.85500000	    -12.53475525	      0.64972266	     -1.17060502	     -0.27679763	      0.94902610	     -0.89941209	     26.84903885	     -8.54006895	    -18.71643692	     26.62418690	      0.46467972	     -4.50276380	      0.00000000	      0.00000000	     26.79189827	    -12.55558979	    -18.79538753	     27.38420032	      0.47794446	    -10.34116170	      0.00000000	      0.00000000	    -22.04072140	    -17.60093659	    -46.73474828	     33.78772573	    -22.16985677	     89.54559092	     71.65235308	     88.53758517	      0.00000000	      0.00000000	    -71.11180890	     -2.82015498	    -26.58632777	    114.04049125	     88.10425657	      0.00000000	      0.00000000
      4.86000000	    -12.30589825	      0.68958540	     -1.00509533	     -0.27289973	      0.96168600	     -0.89920608	     24.84944109	     -8.14709367	    -19.15929975	     23.07212718	      0.40268458	     -9.15726984	      0.00000000	      0.00000000	     24.93185359	    -11.94542442	    -19.03709109	     23.94289538	      0.41788236	    -14.94396151	      0.00000000	      0.00000000	    -21.34993798	    -17.72220383	    -46.89195732	     33.66895380	    -22.29217921	     89.54853582	     71.69192659	     88.53816001	      0.00000000	      0.00000000	    -71.55872244	     -2.47401936	    -26.80558908	    114.49613403	     88.10795922	      0.00000000	      0.00000000
      4.86500000	    -12.06679593	      0.87782470	     -1.23020168	     -0.26872971	      0.97444605	     -0.89841739	     22.92504332	     -7.70262138	    -19.14408347	     19.43604220	      0.33922293	    -13.93512554	      0.00000000	      0.00000000	     22.85621241	    -11.32905694	    -19.73369484	     20.31506147	      0.35456471	    -19.47138285	      0.00000000	      0.00000000	    -20.52126396	    -18.13185326	    -46.68112827	     33.52723725	    -22.41538016	     89.54222579	     71.69936803	     88.53222918	      0.00000000	      0.00000000	    -71.90326204	     -2.20233472	    -26.90712064	    114.84406508	     88.11326204	      0.00000000	      0.00000000
      4.87000000	    -11.89527837	      0.96738298	     -1.14826815	     -0.26487071	      0.98716783	     -0.89814172	     21.10379988	     -7.33112281	    -19.43677174	     15.88427259	      0.27723286	    -19.04579707	      0.00000000	      0.00000000	     21.06915995	    -10.67624536	    -19.95887362	     16.76364731	      0.29258084	    -24.21152672	      0.00000000	      0.00000000	    -19.75446300	    -18.31083674	    -46.71725431	     33.43128341	    -22.52430910	     89.53519518	     71.78486241	     88.52436036	      0.00000000	      0.00000000	    -72.17641108	     -2.01823432	    -27.00545925	    115.18037257	     88.11829555	      0.00000000	      0.00000000
      4.87500000	    -11.83084101	      1.10805616	     -1.12119524	     -0.26113776	      0.99980669	     -0.89779776	     19.54596101	     -7.03128696	    -19.65305569	     12.53882499	      0.21884378	    -24.13960386	      0.00000000	      0.00000000	     19.43447195	     -9.97972483	    -20.02408399	     13.23886399	      0.23106177	    -28.87774145	      0.00000000	      0.00000000	    -18.87306022	    -18.56927622	    -46.65125575	     33.28455021	    -22.66182618	     89.53149534	     71.93552534	     88.52385394	      0.00000000	      0.00000000	    -72.43060937	     -1.86198938	    -27.10911901	    115.53932486	     88.11597422	      0.00000000	      0.00000000
      4.88000000	    -11.81179658	      1.25449380	     -1.12837248	     -0.25762529	      1.01236416	     -0.89749775	     18.14872468	     -6.76786698	    -19.86142029	      9.30473615	      0.16239828	    -29.08760343	      0.00000000	      0.00000000	     17.93026323	     -9.33628417	    -20.29208725	      9.85988937	      0.17208753	    -33.13578920	      0.00000000	      0.00000000	    -17.96733141	    -18.80661998	    -46.53279815	     33.19192824	    -22.77297437	     89.53094229	     72.06204291	     88.52104876	      0.00000000	      0.00000000	    -72.60590462	     -1.87953909	    -27.08604354	    115.78152486	     88.11690006	      0.00000000	      0.00000000
      4.88500000	    -11.78530032	      1.29088258	     -1.00628665	     -0.25411469	      1.02496371	     -0.89734796	     16.83811351	     -6.48843619	    -20.50011437	      6.32780969	      0.11044111	    -33.43881532	      0.00000000	      0.00000000	     16.57811626	     -8.81157437	    -20.42092193	      6.83108165	      0.11922487	    -36.36795862	      0.00000000	      0.00000000	    -17.13912445	    -18.88168825	    -46.52082180	     33.13659608	    -22.87937197	     89.51446241	     72.21932577	     88.51408850	      0.00000000	      0.00000000	    -72.63493504	     -1.85623088	    -27.12747730	    115.96399616	     88.11340741	      0.00000000	      0.00000000
